<svg width="52" height="461" viewBox="0 0 52 461" fill="none" xmlns="http://www.w3.org/2000/svg">
<mask id="path-1-outside-1_1_148" maskUnits="userSpaceOnUse" x="3.87772e-09" y="-2.32663e-08" width="52" height="461" fill="black">
<rect fill="white" x="3.87772e-09" y="-2.32663e-08" width="52" height="461"/>
<path d="M39.09 10.8L12.91 10.8C12.4433 10.8 12.0467 10.9633 11.72 11.29C11.44 11.57 11.3 11.9433 11.3 12.41L11.3 28.79C11.3 29.2567 11.44 29.6533 11.72 29.98C12.0467 30.26 12.4433 30.4 12.91 30.4L39.09 30.4C39.5567 30.4 39.93 30.26 40.21 29.98C40.5367 29.6533 40.7 29.2567 40.7 28.79L40.7 12.41C40.7 11.9433 40.5367 11.57 40.21 11.29C39.93 10.9633 39.5567 10.8 39.09 10.8ZM1.5 48.39L1.5 10.8C1.5 8.09333 2.45667 5.78333 4.37 3.87C6.28333 1.95666 8.59333 0.999997 11.3 0.999997L40.7 0.999997C43.4067 0.999997 45.7167 1.95666 47.63 3.87C49.5433 5.78333 50.5 8.09333 50.5 10.8L50.5 30.4C50.5 33.1067 49.5433 35.4167 47.63 37.33C45.7167 39.2433 43.4067 40.2 40.7 40.2L12.91 40.2C12.4433 40.2 12.0467 40.3633 11.72 40.69C11.44 40.97 11.3 41.3433 11.3 41.81L11.3 48.39C11.3 48.8567 11.1367 49.2533 10.81 49.58C10.53 49.86 10.1567 50 9.69 50L3.11 50C2.64333 50 2.24667 49.86 1.92 49.58C1.64 49.2533 1.5 48.8567 1.5 48.39ZM1.5 84.61C1.5 84.1433 1.64 83.77 1.92 83.49C2.24667 83.1633 2.64333 83 3.11 83L9.69 83C10.1567 83 10.53 83.1633 10.81 83.49C11.1367 83.77 11.3 84.1433 11.3 84.61L11.3 110.79C11.3 111.257 11.44 111.653 11.72 111.98C12.0467 112.26 12.4433 112.4 12.91 112.4L39.09 112.4C39.5567 112.4 39.93 112.26 40.21 111.98C40.5367 111.653 40.7 111.257 40.7 110.79L40.7 84.61C40.7 84.1433 40.84 83.77 41.12 83.49C41.4467 83.1633 41.8433 83 42.31 83L48.89 83C49.3567 83 49.73 83.1633 50.01 83.49C50.3367 83.77 50.5 84.1433 50.5 84.61L50.5 112.4C50.5 115.107 49.5433 117.417 47.63 119.33C45.7167 121.243 43.4067 122.2 40.7 122.2L32.51 122.2C32.0433 122.2 31.6467 122.363 31.32 122.69C31.04 122.97 30.9 123.343 30.9 123.81L30.9 130.39C30.9 130.857 30.7367 131.253 30.41 131.58C30.13 131.86 29.7567 132 29.29 132L22.71 132C22.2433 132 21.8467 131.86 21.52 131.58C21.24 131.253 21.1 130.857 21.1 130.39L21.1 123.81C21.1 123.343 20.9367 122.97 20.61 122.69C20.33 122.363 19.9567 122.2 19.49 122.2L11.3 122.2C8.59333 122.2 6.28333 121.243 4.37 119.33C2.45667 117.417 1.5 115.107 1.5 112.4L1.5 84.61ZM1.5 166.61C1.5 166.143 1.64 165.77 1.92 165.49C2.24667 165.163 2.64333 165 3.11 165L48.89 165C49.3567 165 49.73 165.163 50.01 165.49C50.3367 165.77 50.5 166.143 50.5 166.61L50.5 173.19C50.5 173.657 50.3367 174.053 50.01 174.38C49.73 174.66 49.3567 174.8 48.89 174.8L32.51 174.8C32.0433 174.8 31.6467 174.963 31.32 175.29C31.04 175.57 30.9 175.943 30.9 176.41L30.9 212.39C30.9 212.857 30.7367 213.253 30.41 213.58C30.13 213.86 29.7567 214 29.29 214L22.71 214C22.2433 214 21.8467 213.86 21.52 213.58C21.24 213.253 21.1 212.857 21.1 212.39L21.1 176.41C21.1 175.943 20.9367 175.57 20.61 175.29C20.33 174.963 19.9567 174.8 19.49 174.8L3.11 174.8C2.64333 174.8 2.24667 174.66 1.92 174.38C1.64 174.053 1.5 173.657 1.5 173.19L1.5 166.61ZM1.5 294.32L1.5 248.54C1.5 248.073 1.64 247.7 1.92 247.42C2.24667 247.093 2.64333 246.93 3.11 246.93L9.69 246.93C10.1567 246.93 10.53 247.093 10.81 247.42C11.1367 247.7 11.3 248.073 11.3 248.54L11.3 264.92C11.3 265.387 11.44 265.783 11.72 266.11C12.0467 266.39 12.4433 266.53 12.91 266.53L39.09 266.53C39.5567 266.53 39.93 266.39 40.21 266.11C40.5367 265.783 40.7 265.387 40.7 264.92L40.7 248.54C40.7 248.073 40.84 247.7 41.12 247.42C41.4467 247.093 41.8433 246.93 42.31 246.93L48.89 246.93C49.3567 246.93 49.73 247.093 50.01 247.42C50.3367 247.7 50.5 248.073 50.5 248.54L50.5 294.32C50.5 294.787 50.3367 295.183 50.01 295.51C49.73 295.79 49.3567 295.93 48.89 295.93L42.31 295.93C41.8433 295.93 41.4467 295.79 41.12 295.51C40.84 295.183 40.7 294.787 40.7 294.32L40.7 277.94C40.7 277.473 40.5367 277.1 40.21 276.82C39.93 276.493 39.5567 276.33 39.09 276.33L12.91 276.33C12.4433 276.33 12.0467 276.493 11.72 276.82C11.44 277.1 11.3 277.473 11.3 277.94L11.3 294.32C11.3 294.787 11.1367 295.183 10.81 295.51C10.53 295.79 10.1567 295.93 9.69 295.93L3.11 295.93C2.64333 295.93 2.24667 295.79 1.92 295.51C1.64 295.183 1.5 294.787 1.5 294.32ZM1.5 368.2L1.5 338.8C1.5 336.093 2.45667 333.783 4.37 331.87C6.28333 329.957 8.59333 329 11.3 329L40.7 329C43.4067 329 45.7167 329.957 47.63 331.87C49.5433 333.783 50.5 336.093 50.5 338.8L50.5 368.2C50.5 370.907 49.5433 373.217 47.63 375.13C45.7167 377.043 43.4067 378 40.7 378L11.3 378C8.59333 378 6.28333 377.043 4.37 375.13C2.45667 373.217 1.5 370.907 1.5 368.2ZM12.91 368.2L39.09 368.2C39.5567 368.2 39.93 368.06 40.21 367.78C40.5367 367.453 40.7 367.057 40.7 366.59L40.7 340.41C40.7 339.943 40.5367 339.57 40.21 339.29C39.93 338.963 39.5567 338.8 39.09 338.8L12.91 338.8C12.4433 338.8 12.0467 338.963 11.72 339.29C11.44 339.57 11.3 339.943 11.3 340.41L11.3 366.59C11.3 367.057 11.44 367.453 11.72 367.78C12.0467 368.06 12.4433 368.2 12.91 368.2ZM1.5 458.39L1.5 412.61C1.5 412.19 1.66333 411.817 1.99 411.49C2.31667 411.163 2.71333 411 3.18 411L9.69 411C10.7633 411 11.6733 411.42 12.42 412.26L39.65 443.76C39.8367 443.947 40.07 444.017 40.35 443.97C40.5833 443.877 40.7 443.69 40.7 443.41L40.7 412.61C40.7 412.19 40.8633 411.817 41.19 411.49C41.5167 411.163 41.89 411 42.31 411L48.89 411C49.3567 411 49.73 411.163 50.01 411.49C50.3367 411.817 50.5 412.19 50.5 412.61L50.5 458.39C50.5 458.81 50.3367 459.183 50.01 459.51C49.73 459.837 49.3567 460 48.89 460L42.31 460C41.19 460 40.3033 459.58 39.65 458.74C33.1167 451.273 24.04 440.773 12.42 427.24C12.0933 426.913 11.8133 426.797 11.58 426.89C11.3933 426.937 11.3 427.193 11.3 427.66L11.3 458.39C11.3 458.81 11.1367 459.183 10.81 459.51C10.53 459.837 10.1567 460 9.69 460L3.18 460C2.71333 460 2.31667 459.837 1.99 459.51C1.66333 459.183 1.5 458.81 1.5 458.39Z"/>
</mask>
<path d="M11.72 11.29L11.0129 10.5829H11.0129L11.72 11.29ZM11.72 29.98L10.9607 30.6308L11.0108 30.6892L11.0692 30.7393L11.72 29.98ZM40.21 29.98L40.9171 30.6871L40.9171 30.6871L40.21 29.98ZM40.21 11.29L39.4507 11.9408L39.5008 11.9992L39.5592 12.0493L40.21 11.29ZM4.37 3.87L5.07711 4.5771L4.37 3.87ZM10.81 49.58L11.5171 50.2871L11.5171 50.2871L10.81 49.58ZM1.92 49.58L1.16074 50.2308L1.2108 50.2892L1.26921 50.3393L1.92 49.58ZM39.09 9.8L12.91 9.8L12.91 11.8L39.09 11.8L39.09 9.8ZM12.91 9.8C12.1811 9.8 11.5292 10.0666 11.0129 10.5829L12.4271 11.9971C12.5641 11.8601 12.7055 11.8 12.91 11.8L12.91 9.8ZM11.0129 10.5829C10.5122 11.0836 10.3 11.7291 10.3 12.41L12.3 12.41C12.3 12.1576 12.3678 12.0564 12.4271 11.9971L11.0129 10.5829ZM10.3 12.41L10.3 28.79L12.3 28.79L12.3 12.41L10.3 12.41ZM10.3 28.79C10.3 29.4736 10.5118 30.107 10.9607 30.6308L12.4793 29.3292C12.3682 29.1997 12.3 29.0397 12.3 28.79L10.3 28.79ZM11.0692 30.7393C11.593 31.1882 12.2264 31.4 12.91 31.4L12.91 29.4C12.6603 29.4 12.5003 29.3318 12.3708 29.2207L11.0692 30.7393ZM12.91 31.4L39.09 31.4L39.09 29.4L12.91 29.4L12.91 31.4ZM39.09 31.4C39.7709 31.4 40.4164 31.1878 40.9171 30.6871L39.5029 29.2729C39.4436 29.3322 39.3424 29.4 39.09 29.4L39.09 31.4ZM40.9171 30.6871C41.4334 30.1708 41.7 29.5189 41.7 28.79L39.7 28.79C39.7 28.9945 39.6399 29.1359 39.5029 29.2729L40.9171 30.6871ZM41.7 28.79L41.7 12.41L39.7 12.41L39.7 28.79L41.7 28.79ZM41.7 12.41C41.7 11.6794 41.4295 11.0182 40.8608 10.5307L39.5592 12.0493C39.6438 12.1218 39.7 12.2073 39.7 12.41L41.7 12.41ZM40.9693 10.6392C40.4818 10.0705 39.8206 9.8 39.09 9.8L39.09 11.8C39.2927 11.8 39.3782 11.8562 39.4507 11.9408L40.9693 10.6392ZM2.5 48.39L2.5 10.8L0.5 10.8L0.5 48.39L2.5 48.39ZM2.5 10.8C2.5 8.35846 3.35137 6.30284 5.07711 4.5771L3.66289 3.16289C1.56196 5.26382 0.5 7.82821 0.5 10.8L2.5 10.8ZM5.07711 4.5771C6.80284 2.85137 8.85846 2 11.3 2L11.3 -3.82043e-06C8.32821 -3.81915e-06 5.76383 1.06196 3.66289 3.16289L5.07711 4.5771ZM11.3 2L40.7 2L40.7 -3.83309e-06L11.3 -3.82043e-06L11.3 2ZM40.7 2C43.1415 2 45.1972 2.85137 46.9229 4.5771L48.3371 3.16289C46.2362 1.06196 43.6718 -3.83438e-06 40.7 -3.83309e-06L40.7 2ZM46.9229 4.5771C48.6486 6.30284 49.5 8.35846 49.5 10.8L51.5 10.8C51.5 7.82821 50.438 5.26382 48.3371 3.16289L46.9229 4.5771ZM49.5 10.8L49.5 30.4L51.5 30.4L51.5 10.8L49.5 10.8ZM49.5 30.4C49.5 32.8415 48.6486 34.8972 46.9229 36.6229L48.3371 38.0371C50.438 35.9362 51.5 33.3718 51.5 30.4L49.5 30.4ZM46.9229 36.6229C45.1972 38.3486 43.1415 39.2 40.7 39.2L40.7 41.2C43.6718 41.2 46.2362 40.138 48.3371 38.0371L46.9229 36.6229ZM40.7 39.2L12.91 39.2L12.91 41.2L40.7 41.2L40.7 39.2ZM12.91 39.2C12.1811 39.2 11.5292 39.4666 11.0129 39.9829L12.4271 41.3971C12.5641 41.2601 12.7055 41.2 12.91 41.2L12.91 39.2ZM11.0129 39.9829C10.5122 40.4836 10.3 41.1291 10.3 41.81L12.3 41.81C12.3 41.5576 12.3678 41.4564 12.4271 41.3971L11.0129 39.9829ZM10.3 41.81L10.3 48.39L12.3 48.39L12.3 41.81L10.3 41.81ZM10.3 48.39C10.3 48.5945 10.2399 48.7359 10.1029 48.8729L11.5171 50.2871C12.0334 49.7708 12.3 49.1189 12.3 48.39L10.3 48.39ZM10.1029 48.8729C10.0436 48.9322 9.94241 49 9.69 49L9.69 51C10.3709 51 11.0164 50.7878 11.5171 50.2871L10.1029 48.8729ZM9.69 49L3.11 49L3.11 51L9.69 51L9.69 49ZM3.11 49C2.86026 49 2.70033 48.9318 2.57079 48.8207L1.26921 50.3393C1.793 50.7882 2.42641 51 3.11 51L3.11 49ZM2.67926 48.9292C2.56822 48.7997 2.5 48.6397 2.5 48.39L0.5 48.39C0.5 49.0736 0.711778 49.707 1.16074 50.2308L2.67926 48.9292ZM1.92 83.49L2.62711 84.1971H2.62711L1.92 83.49ZM10.81 83.49L10.0507 84.1408L10.1008 84.1992L10.1592 84.2493L10.81 83.49ZM11.72 111.98L10.9607 112.631L11.0108 112.689L11.0692 112.739L11.72 111.98ZM40.21 111.98L40.9171 112.687L40.9171 112.687L40.21 111.98ZM41.12 83.49L41.8271 84.1971H41.8271L41.12 83.49ZM50.01 83.49L49.2507 84.1408L49.3008 84.1992L49.3592 84.2493L50.01 83.49ZM31.32 122.69L30.6129 121.983L31.32 122.69ZM30.41 131.58L31.1171 132.287L30.41 131.58ZM21.52 131.58L20.7607 132.231L20.8108 132.289L20.8692 132.339L21.52 131.58ZM20.61 122.69L19.8507 123.341L19.9008 123.399L19.9592 123.449L20.61 122.69ZM4.37 119.33L5.07711 118.623L4.37 119.33ZM2.5 84.61C2.5 84.3576 2.56784 84.2564 2.62711 84.1971L1.21289 82.7829C0.712158 83.2836 0.5 83.9291 0.5 84.61L2.5 84.61ZM2.62711 84.1971C2.76411 84.0601 2.90552 84 3.11 84L3.11 82C2.38114 82 1.72922 82.2666 1.21289 82.7829L2.62711 84.1971ZM3.11 84L9.69 84L9.69 82L3.11 82L3.11 84ZM9.69 84C9.8927 84 9.9782 84.0562 10.0507 84.1408L11.5693 82.8392C11.0818 82.2705 10.4206 82 9.69 82L9.69 84ZM10.1592 84.2493C10.2438 84.3218 10.3 84.4073 10.3 84.61L12.3 84.61C12.3 83.8794 12.0295 83.2182 11.4608 82.7307L10.1592 84.2493ZM10.3 84.61L10.3 110.79L12.3 110.79L12.3 84.61L10.3 84.61ZM10.3 110.79C10.3 111.474 10.5118 112.107 10.9607 112.631L12.4793 111.329C12.3682 111.2 12.3 111.04 12.3 110.79L10.3 110.79ZM11.0692 112.739C11.593 113.188 12.2264 113.4 12.91 113.4L12.91 111.4C12.6603 111.4 12.5003 111.332 12.3708 111.221L11.0692 112.739ZM12.91 113.4L39.09 113.4L39.09 111.4L12.91 111.4L12.91 113.4ZM39.09 113.4C39.7709 113.4 40.4164 113.188 40.9171 112.687L39.5029 111.273C39.4436 111.332 39.3424 111.4 39.09 111.4L39.09 113.4ZM40.9171 112.687C41.4334 112.171 41.7 111.519 41.7 110.79L39.7 110.79C39.7 110.994 39.6399 111.136 39.5029 111.273L40.9171 112.687ZM41.7 110.79L41.7 84.61L39.7 84.61L39.7 110.79L41.7 110.79ZM41.7 84.61C41.7 84.3576 41.7678 84.2564 41.8271 84.1971L40.4129 82.7829C39.9122 83.2836 39.7 83.9291 39.7 84.61L41.7 84.61ZM41.8271 84.1971C41.9641 84.0601 42.1055 84 42.31 84L42.31 82C41.5811 82 40.9292 82.2666 40.4129 82.7829L41.8271 84.1971ZM42.31 84L48.89 84L48.89 82L42.31 82L42.31 84ZM48.89 84C49.0927 84 49.1782 84.0562 49.2507 84.1408L50.7693 82.8392C50.2818 82.2705 49.6206 82 48.89 82L48.89 84ZM49.3592 84.2493C49.4438 84.3218 49.5 84.4073 49.5 84.61L51.5 84.61C51.5 83.8794 51.2295 83.2182 50.6608 82.7307L49.3592 84.2493ZM49.5 84.61L49.5 112.4L51.5 112.4L51.5 84.61L49.5 84.61ZM49.5 112.4C49.5 114.842 48.6486 116.897 46.9229 118.623L48.3371 120.037C50.438 117.936 51.5 115.372 51.5 112.4L49.5 112.4ZM46.9229 118.623C45.1972 120.349 43.1415 121.2 40.7 121.2L40.7 123.2C43.6718 123.2 46.2362 122.138 48.3371 120.037L46.9229 118.623ZM40.7 121.2L32.51 121.2L32.51 123.2L40.7 123.2L40.7 121.2ZM32.51 121.2C31.7811 121.2 31.1292 121.467 30.6129 121.983L32.0271 123.397C32.1641 123.26 32.3055 123.2 32.51 123.2L32.51 121.2ZM30.6129 121.983C30.1122 122.484 29.9 123.129 29.9 123.81L31.9 123.81C31.9 123.558 31.9678 123.456 32.0271 123.397L30.6129 121.983ZM29.9 123.81L29.9 130.39L31.9 130.39L31.9 123.81L29.9 123.81ZM29.9 130.39C29.9 130.594 29.8399 130.736 29.7029 130.873L31.1171 132.287C31.6334 131.771 31.9 131.119 31.9 130.39L29.9 130.39ZM29.7029 130.873C29.6436 130.932 29.5424 131 29.29 131L29.29 133C29.9709 133 30.6164 132.788 31.1171 132.287L29.7029 130.873ZM29.29 131L22.71 131L22.71 133L29.29 133L29.29 131ZM22.71 131C22.4603 131 22.3003 130.932 22.1708 130.821L20.8692 132.339C21.393 132.788 22.0264 133 22.71 133L22.71 131ZM22.2793 130.929C22.1682 130.8 22.1 130.64 22.1 130.39L20.1 130.39C20.1 131.074 20.3118 131.707 20.7607 132.231L22.2793 130.929ZM22.1 130.39L22.1 123.81L20.1 123.81L20.1 130.39L22.1 130.39ZM22.1 123.81C22.1 123.079 21.8295 122.418 21.2608 121.931L19.9592 123.449C20.0438 123.522 20.1 123.607 20.1 123.81L22.1 123.81ZM21.3693 122.039C20.8818 121.471 20.2206 121.2 19.49 121.2L19.49 123.2C19.6927 123.2 19.7782 123.256 19.8507 123.341L21.3693 122.039ZM19.49 121.2L11.3 121.2L11.3 123.2L19.49 123.2L19.49 121.2ZM11.3 121.2C8.85846 121.2 6.80284 120.349 5.07711 118.623L3.66289 120.037C5.76383 122.138 8.32821 123.2 11.3 123.2L11.3 121.2ZM5.07711 118.623C3.35137 116.897 2.5 114.842 2.5 112.4L0.5 112.4C0.5 115.372 1.56196 117.936 3.66289 120.037L5.07711 118.623ZM2.5 112.4L2.5 84.61L0.5 84.61L0.5 112.4L2.5 112.4ZM1.92 165.49L2.62711 166.197L2.62711 166.197L1.92 165.49ZM50.01 165.49L49.2507 166.141L49.3008 166.199L49.3592 166.249L50.01 165.49ZM50.01 174.38L49.3029 173.673L49.3029 173.673L50.01 174.38ZM31.32 175.29L30.6129 174.583L30.6129 174.583L31.32 175.29ZM30.41 213.58L31.1171 214.287L30.41 213.58ZM21.52 213.58L20.7607 214.231L20.8108 214.289L20.8692 214.339L21.52 213.58ZM20.61 175.29L19.8507 175.941L19.9008 175.999L19.9592 176.049L20.61 175.29ZM1.92 174.38L1.16074 175.031L1.2108 175.089L1.26921 175.139L1.92 174.38ZM2.5 166.61C2.5 166.358 2.56784 166.256 2.62711 166.197L1.21289 164.783C0.712158 165.284 0.5 165.929 0.5 166.61L2.5 166.61ZM2.62711 166.197C2.76411 166.06 2.90552 166 3.11 166L3.11 164C2.38114 164 1.72922 164.267 1.21289 164.783L2.62711 166.197ZM3.11 166L48.89 166L48.89 164L3.11 164L3.11 166ZM48.89 166C49.0927 166 49.1782 166.056 49.2507 166.141L50.7693 164.839C50.2818 164.271 49.6206 164 48.89 164L48.89 166ZM49.3592 166.249C49.4438 166.322 49.5 166.407 49.5 166.61L51.5 166.61C51.5 165.879 51.2295 165.218 50.6608 164.731L49.3592 166.249ZM49.5 166.61L49.5 173.19L51.5 173.19L51.5 166.61L49.5 166.61ZM49.5 173.19C49.5 173.394 49.4399 173.536 49.3029 173.673L50.7171 175.087C51.2334 174.571 51.5 173.919 51.5 173.19L49.5 173.19ZM49.3029 173.673C49.2436 173.732 49.1424 173.8 48.89 173.8L48.89 175.8C49.5709 175.8 50.2164 175.588 50.7171 175.087L49.3029 173.673ZM48.89 173.8L32.51 173.8L32.51 175.8L48.89 175.8L48.89 173.8ZM32.51 173.8C31.7811 173.8 31.1292 174.067 30.6129 174.583L32.0271 175.997C32.1641 175.86 32.3055 175.8 32.51 175.8L32.51 173.8ZM30.6129 174.583C30.1122 175.084 29.9 175.729 29.9 176.41L31.9 176.41C31.9 176.158 31.9678 176.056 32.0271 175.997L30.6129 174.583ZM29.9 176.41L29.9 212.39L31.9 212.39L31.9 176.41L29.9 176.41ZM29.9 212.39C29.9 212.594 29.8399 212.736 29.7029 212.873L31.1171 214.287C31.6334 213.771 31.9 213.119 31.9 212.39L29.9 212.39ZM29.7029 212.873C29.6436 212.932 29.5424 213 29.29 213L29.29 215C29.9709 215 30.6164 214.788 31.1171 214.287L29.7029 212.873ZM29.29 213L22.71 213L22.71 215L29.29 215L29.29 213ZM22.71 213C22.4603 213 22.3003 212.932 22.1708 212.821L20.8692 214.339C21.393 214.788 22.0264 215 22.71 215L22.71 213ZM22.2793 212.929C22.1682 212.8 22.1 212.64 22.1 212.39L20.1 212.39C20.1 213.074 20.3118 213.707 20.7607 214.231L22.2793 212.929ZM22.1 212.39L22.1 176.41L20.1 176.41L20.1 212.39L22.1 212.39ZM22.1 176.41C22.1 175.679 21.8295 175.018 21.2608 174.531L19.9592 176.049C20.0438 176.122 20.1 176.207 20.1 176.41L22.1 176.41ZM21.3693 174.639C20.8818 174.071 20.2206 173.8 19.49 173.8L19.49 175.8C19.6927 175.8 19.7782 175.856 19.8507 175.941L21.3693 174.639ZM19.49 173.8L3.11 173.8L3.11 175.8L19.49 175.8L19.49 173.8ZM3.11 173.8C2.86026 173.8 2.70033 173.732 2.57079 173.621L1.26921 175.139C1.793 175.588 2.42641 175.8 3.11 175.8L3.11 173.8ZM2.67926 173.729C2.56822 173.6 2.5 173.44 2.5 173.19L0.5 173.19C0.5 173.874 0.711778 174.507 1.16074 175.031L2.67926 173.729ZM2.5 173.19L2.5 166.61L0.5 166.61L0.5 173.19L2.5 173.19ZM1.92 247.42L2.62711 248.127H2.62711L1.92 247.42ZM10.81 247.42L10.0507 248.071L10.1008 248.129L10.1592 248.179L10.81 247.42ZM11.72 266.11L10.9607 266.761L11.0108 266.819L11.0692 266.869L11.72 266.11ZM40.21 266.11L40.9171 266.817H40.9171L40.21 266.11ZM41.12 247.42L41.8271 248.127H41.8271L41.12 247.42ZM50.01 247.42L49.2507 248.071L49.3008 248.129L49.3592 248.179L50.01 247.42ZM50.01 295.51L49.3029 294.803H49.3029L50.01 295.51ZM41.12 295.51L40.3607 296.161L40.4108 296.219L40.4692 296.269L41.12 295.51ZM40.21 276.82L39.4507 277.471L39.5008 277.529L39.5592 277.579L40.21 276.82ZM11.72 276.82L11.0129 276.113H11.0129L11.72 276.82ZM10.81 295.51L11.5171 296.217H11.5171L10.81 295.51ZM1.92 295.51L1.16074 296.161L1.2108 296.219L1.26921 296.269L1.92 295.51ZM2.5 294.32L2.5 248.54L0.5 248.54L0.5 294.32L2.5 294.32ZM2.5 248.54C2.5 248.288 2.56784 248.186 2.62711 248.127L1.21289 246.713C0.712158 247.214 0.5 247.859 0.5 248.54L2.5 248.54ZM2.62711 248.127C2.76411 247.99 2.90552 247.93 3.11 247.93L3.11 245.93C2.38114 245.93 1.72922 246.197 1.21289 246.713L2.62711 248.127ZM3.11 247.93L9.69 247.93L9.69 245.93L3.11 245.93L3.11 247.93ZM9.69 247.93C9.8927 247.93 9.9782 247.986 10.0507 248.071L11.5693 246.769C11.0818 246.201 10.4206 245.93 9.69 245.93L9.69 247.93ZM10.1592 248.179C10.2438 248.252 10.3 248.337 10.3 248.54L12.3 248.54C12.3 247.809 12.0295 247.148 11.4608 246.661L10.1592 248.179ZM10.3 248.54L10.3 264.92L12.3 264.92L12.3 248.54L10.3 248.54ZM10.3 264.92C10.3 265.604 10.5118 266.237 10.9607 266.761L12.4793 265.459C12.3682 265.33 12.3 265.17 12.3 264.92L10.3 264.92ZM11.0692 266.869C11.593 267.318 12.2264 267.53 12.91 267.53L12.91 265.53C12.6603 265.53 12.5003 265.462 12.3708 265.351L11.0692 266.869ZM12.91 267.53L39.09 267.53L39.09 265.53L12.91 265.53L12.91 267.53ZM39.09 267.53C39.7709 267.53 40.4164 267.318 40.9171 266.817L39.5029 265.403C39.4436 265.462 39.3424 265.53 39.09 265.53L39.09 267.53ZM40.9171 266.817C41.4334 266.301 41.7 265.649 41.7 264.92L39.7 264.92C39.7 265.124 39.6399 265.266 39.5029 265.403L40.9171 266.817ZM41.7 264.92L41.7 248.54L39.7 248.54L39.7 264.92L41.7 264.92ZM41.7 248.54C41.7 248.288 41.7678 248.186 41.8271 248.127L40.4129 246.713C39.9122 247.214 39.7 247.859 39.7 248.54L41.7 248.54ZM41.8271 248.127C41.9641 247.99 42.1055 247.93 42.31 247.93L42.31 245.93C41.5811 245.93 40.9292 246.197 40.4129 246.713L41.8271 248.127ZM42.31 247.93L48.89 247.93L48.89 245.93L42.31 245.93L42.31 247.93ZM48.89 247.93C49.0927 247.93 49.1782 247.986 49.2507 248.071L50.7693 246.769C50.2818 246.201 49.6206 245.93 48.89 245.93L48.89 247.93ZM49.3592 248.179C49.4438 248.252 49.5 248.337 49.5 248.54L51.5 248.54C51.5 247.809 51.2295 247.148 50.6608 246.661L49.3592 248.179ZM49.5 248.54L49.5 294.32L51.5 294.32L51.5 248.54L49.5 248.54ZM49.5 294.32C49.5 294.524 49.4399 294.666 49.3029 294.803L50.7171 296.217C51.2334 295.701 51.5 295.049 51.5 294.32L49.5 294.32ZM49.3029 294.803C49.2436 294.862 49.1424 294.93 48.89 294.93L48.89 296.93C49.5709 296.93 50.2164 296.718 50.7171 296.217L49.3029 294.803ZM48.89 294.93L42.31 294.93L42.31 296.93L48.89 296.93L48.89 294.93ZM42.31 294.93C42.0603 294.93 41.9003 294.862 41.7708 294.751L40.4692 296.269C40.993 296.718 41.6264 296.93 42.31 296.93L42.31 294.93ZM41.8793 294.859C41.7682 294.73 41.7 294.57 41.7 294.32L39.7 294.32C39.7 295.004 39.9118 295.637 40.3607 296.161L41.8793 294.859ZM41.7 294.32L41.7 277.94L39.7 277.94L39.7 294.32L41.7 294.32ZM41.7 277.94C41.7 277.209 41.4295 276.548 40.8608 276.061L39.5592 277.579C39.6438 277.652 39.7 277.737 39.7 277.94L41.7 277.94ZM40.9693 276.169C40.4818 275.601 39.8206 275.33 39.09 275.33L39.09 277.33C39.2927 277.33 39.3782 277.386 39.4507 277.471L40.9693 276.169ZM39.09 275.33L12.91 275.33L12.91 277.33L39.09 277.33L39.09 275.33ZM12.91 275.33C12.1811 275.33 11.5292 275.597 11.0129 276.113L12.4271 277.527C12.5641 277.39 12.7055 277.33 12.91 277.33L12.91 275.33ZM11.0129 276.113C10.5122 276.614 10.3 277.259 10.3 277.94L12.3 277.94C12.3 277.688 12.3678 277.586 12.4271 277.527L11.0129 276.113ZM10.3 277.94L10.3 294.32L12.3 294.32L12.3 277.94L10.3 277.94ZM10.3 294.32C10.3 294.524 10.2399 294.666 10.1029 294.803L11.5171 296.217C12.0334 295.701 12.3 295.049 12.3 294.32L10.3 294.32ZM10.1029 294.803C10.0436 294.862 9.94241 294.93 9.69 294.93L9.69 296.93C10.3709 296.93 11.0164 296.718 11.5171 296.217L10.1029 294.803ZM9.69 294.93L3.11 294.93L3.11 296.93L9.69 296.93L9.69 294.93ZM3.11 294.93C2.86026 294.93 2.70033 294.862 2.57079 294.751L1.26921 296.269C1.793 296.718 2.42641 296.93 3.11 296.93L3.11 294.93ZM2.67926 294.859C2.56822 294.73 2.5 294.57 2.5 294.32L0.5 294.32C0.5 295.004 0.711778 295.637 1.16074 296.161L2.67926 294.859ZM4.37 331.87L5.07711 332.577L4.37 331.87ZM4.37 375.13L5.07711 374.423H5.07711L4.37 375.13ZM40.21 367.78L40.9171 368.487L40.9171 368.487L40.21 367.78ZM40.21 339.29L39.4507 339.941L39.5008 339.999L39.5592 340.049L40.21 339.29ZM11.72 339.29L11.0129 338.583H11.0129L11.72 339.29ZM11.72 367.78L10.9607 368.431L11.0108 368.489L11.0692 368.539L11.72 367.78ZM2.5 368.2L2.5 338.8L0.5 338.8L0.5 368.2L2.5 368.2ZM2.5 338.8C2.5 336.358 3.35137 334.303 5.07711 332.577L3.66289 331.163C1.56196 333.264 0.5 335.828 0.5 338.8L2.5 338.8ZM5.07711 332.577C6.80284 330.851 8.85846 330 11.3 330L11.3 328C8.32821 328 5.76383 329.062 3.66289 331.163L5.07711 332.577ZM11.3 330L40.7 330L40.7 328L11.3 328L11.3 330ZM40.7 330C43.1415 330 45.1972 330.851 46.9229 332.577L48.3371 331.163C46.2362 329.062 43.6718 328 40.7 328L40.7 330ZM46.9229 332.577C48.6486 334.303 49.5 336.358 49.5 338.8L51.5 338.8C51.5 335.828 50.438 333.264 48.3371 331.163L46.9229 332.577ZM49.5 338.8L49.5 368.2L51.5 368.2L51.5 338.8L49.5 338.8ZM49.5 368.2C49.5 370.642 48.6486 372.697 46.9229 374.423L48.3371 375.837C50.438 373.736 51.5 371.172 51.5 368.2L49.5 368.2ZM46.9229 374.423C45.1972 376.149 43.1415 377 40.7 377L40.7 379C43.6718 379 46.2362 377.938 48.3371 375.837L46.9229 374.423ZM40.7 377L11.3 377L11.3 379L40.7 379L40.7 377ZM11.3 377C8.85846 377 6.80284 376.149 5.07711 374.423L3.66289 375.837C5.76383 377.938 8.32821 379 11.3 379L11.3 377ZM5.07711 374.423C3.35137 372.697 2.5 370.642 2.5 368.2L0.5 368.2C0.5 371.172 1.56196 373.736 3.66289 375.837L5.07711 374.423ZM12.91 369.2L39.09 369.2L39.09 367.2L12.91 367.2L12.91 369.2ZM39.09 369.2C39.7709 369.2 40.4164 368.988 40.9171 368.487L39.5029 367.073C39.4436 367.132 39.3424 367.2 39.09 367.2L39.09 369.2ZM40.9171 368.487C41.4334 367.971 41.7 367.319 41.7 366.59L39.7 366.59C39.7 366.794 39.6399 366.936 39.5029 367.073L40.9171 368.487ZM41.7 366.59L41.7 340.41L39.7 340.41L39.7 366.59L41.7 366.59ZM41.7 340.41C41.7 339.679 41.4295 339.018 40.8608 338.531L39.5592 340.049C39.6438 340.122 39.7 340.207 39.7 340.41L41.7 340.41ZM40.9693 338.639C40.4818 338.07 39.8206 337.8 39.09 337.8L39.09 339.8C39.2927 339.8 39.3782 339.856 39.4507 339.941L40.9693 338.639ZM39.09 337.8L12.91 337.8L12.91 339.8L39.09 339.8L39.09 337.8ZM12.91 337.8C12.1811 337.8 11.5292 338.067 11.0129 338.583L12.4271 339.997C12.5641 339.86 12.7055 339.8 12.91 339.8L12.91 337.8ZM11.0129 338.583C10.5122 339.084 10.3 339.729 10.3 340.41L12.3 340.41C12.3 340.158 12.3678 340.056 12.4271 339.997L11.0129 338.583ZM10.3 340.41L10.3 366.59L12.3 366.59L12.3 340.41L10.3 340.41ZM10.3 366.59C10.3 367.274 10.5118 367.907 10.9607 368.431L12.4793 367.129C12.3682 367 12.3 366.84 12.3 366.59L10.3 366.59ZM11.0692 368.539C11.593 368.988 12.2264 369.2 12.91 369.2L12.91 367.2C12.6603 367.2 12.5003 367.132 12.3708 367.021L11.0692 368.539ZM1.99 411.49L2.69711 412.197H2.69711L1.99 411.49ZM12.42 412.26L13.1766 411.606L13.1674 411.596L12.42 412.26ZM39.65 443.76L38.8935 444.414L38.9172 444.441L38.9429 444.467L39.65 443.76ZM40.35 443.97L40.5144 444.956L40.621 444.939L40.7214 444.898L40.35 443.97ZM41.19 411.49L41.8971 412.197H41.8971L41.19 411.49ZM50.01 411.49L49.2507 412.141L49.2757 412.17L49.3029 412.197L50.01 411.49ZM50.01 459.51L49.3029 458.803L49.2757 458.83L49.2507 458.859L50.01 459.51ZM39.65 458.74L40.4394 458.126L40.4216 458.103L40.4026 458.081L39.65 458.74ZM12.42 427.24L13.1787 426.589L13.154 426.56L13.1271 426.533L12.42 427.24ZM11.58 426.89L11.8225 427.86L11.8884 427.844L11.9514 427.818L11.58 426.89ZM10.81 459.51L10.1029 458.803L10.0757 458.83L10.0507 458.859L10.81 459.51ZM1.99 459.51L2.69711 458.803H2.69711L1.99 459.51ZM2.5 458.39L2.5 412.61L0.5 412.61L0.5 458.39L2.5 458.39ZM2.5 412.61C2.5 412.483 2.53738 412.357 2.69711 412.197L1.2829 410.783C0.789283 411.276 0.5 411.897 0.5 412.61L2.5 412.61ZM2.69711 412.197C2.83411 412.06 2.97552 412 3.18 412L3.18 410C2.45114 410 1.79922 410.267 1.28289 410.783L2.69711 412.197ZM3.18 412L9.69 412L9.69 410L3.18 410L3.18 412ZM9.69 412C10.4628 412 11.1055 412.286 11.6726 412.924L13.1674 411.596C12.2411 410.554 11.0639 410 9.69 410L9.69 412ZM11.6635 412.914L38.8935 444.414L40.4065 443.106L13.1765 411.606L11.6635 412.914ZM38.9429 444.467C39.3774 444.902 39.944 445.051 40.5144 444.956L40.1856 442.984C40.1715 442.986 40.2002 442.979 40.2524 442.995C40.3073 443.011 40.3435 443.039 40.3571 443.053L38.9429 444.467ZM40.7214 444.898C41.0061 444.785 41.2741 444.588 41.4605 444.29C41.6419 444 41.7 443.687 41.7 443.41L39.7 443.41C39.7 443.413 39.6998 443.334 39.7645 443.23C39.8342 443.118 39.9272 443.062 39.9786 443.042L40.7214 444.898ZM41.7 443.41L41.7 412.61L39.7 412.61L39.7 443.41L41.7 443.41ZM41.7 412.61C41.7 412.483 41.7374 412.357 41.8971 412.197L40.4829 410.783C39.9893 411.276 39.7 411.897 39.7 412.61L41.7 412.61ZM41.8971 412.197C42.0568 412.037 42.183 412 42.31 412L42.31 410C41.597 410 40.9765 410.289 40.4829 410.783L41.8971 412.197ZM42.31 412L48.89 412L48.89 410L42.31 410L42.31 412ZM48.89 412C49.0927 412 49.1782 412.056 49.2507 412.141L50.7693 410.839C50.2818 410.271 49.6206 410 48.89 410L48.89 412ZM49.3029 412.197C49.4626 412.357 49.5 412.483 49.5 412.61L51.5 412.61C51.5 411.897 51.2107 411.276 50.7171 410.783L49.3029 412.197ZM49.5 412.61L49.5 458.39L51.5 458.39L51.5 412.61L49.5 412.61ZM49.5 458.39C49.5 458.517 49.4626 458.643 49.3029 458.803L50.7171 460.217C51.2107 459.724 51.5 459.103 51.5 458.39L49.5 458.39ZM49.2507 458.859C49.1782 458.944 49.0927 459 48.89 459L48.89 461C49.6206 461 50.2818 460.729 50.7693 460.161L49.2507 458.859ZM48.89 459L42.31 459L42.31 461L48.89 461L48.89 459ZM42.31 459C41.4798 459 40.892 458.708 40.4394 458.126L38.8606 459.354C39.7147 460.452 40.9002 461 42.31 461L42.31 459ZM40.4026 458.081C33.8723 450.618 24.798 440.121 13.1787 426.589L11.6613 427.891C23.282 441.426 32.361 451.928 38.8974 459.398L40.4026 458.081ZM13.1271 426.533C12.765 426.171 12.0554 425.623 11.2086 425.962L11.9514 427.818C11.8744 427.849 11.7933 427.862 11.7183 427.858C11.6469 427.855 11.5991 427.838 11.5804 427.831C11.5628 427.823 11.5671 427.822 11.5937 427.842C11.6199 427.861 11.6597 427.894 11.7129 427.947L13.1271 426.533ZM11.3375 425.92C10.799 426.054 10.539 426.477 10.4302 426.776C10.3252 427.065 10.3 427.381 10.3 427.66L12.3 427.66C12.3 427.575 12.3044 427.516 12.3093 427.477C12.3145 427.437 12.3184 427.436 12.3098 427.459C12.3017 427.482 12.2713 427.557 12.1923 427.643C12.1052 427.737 11.9788 427.821 11.8225 427.86L11.3375 425.92ZM10.3 427.66L10.3 458.39L12.3 458.39L12.3 427.66L10.3 427.66ZM10.3 458.39C10.3 458.517 10.2626 458.643 10.1029 458.803L11.5171 460.217C12.0107 459.724 12.3 459.103 12.3 458.39L10.3 458.39ZM10.0507 458.859C9.9782 458.944 9.8927 459 9.69 459L9.69 461C10.4206 461 11.0818 460.729 11.5693 460.161L10.0507 458.859ZM9.69 459L3.18 459L3.18 461L9.69 461L9.69 459ZM3.18 459C2.97552 459 2.83411 458.94 2.69711 458.803L1.28289 460.217C1.79923 460.733 2.45114 461 3.18 461L3.18 459ZM2.69711 458.803C2.53738 458.643 2.5 458.517 2.5 458.39L0.5 458.39C0.5 459.103 0.789283 459.724 1.28289 460.217L2.69711 458.803Z" fill="white" mask="url(#path-1-outside-1_1_148)"/>
</svg>
